<svg width="16" height="16" viewBox="0 0 16 16" fill="none" xmlns="http://www.w3.org/2000/svg">
<g id="Arrow / Arrows_Reload_01">
<path id="Vector" d="M6.66667 10.6667H3.33333V14M9.33333 5.33333H12.6667V2M3.05534 6.00227C3.42913 5.07711 4.05496 4.27536 4.8617 3.68815C5.66844 3.10094 6.62457 2.75168 7.61984 2.68034C8.6151 2.609 9.60982 2.81827 10.4921 3.28441C11.3743 3.75055 12.1075 4.45503 12.6094 5.31742M12.945 9.99805C12.5712 10.9232 11.9454 11.725 11.1387 12.3122C10.3319 12.8994 9.37678 13.2482 8.38151 13.3195C7.38624 13.3909 6.39071 13.1816 5.50846 12.7155C4.62622 12.2494 3.89255 11.545 3.39063 10.6826" stroke="#4E5568" stroke-linecap="round" stroke-linejoin="round"/>
</g>
</svg>
